<svg width="126" height="30" viewBox="0 0 126 30"><path d="M14.31 0L3.83 0 3.83-35.55 13.96-35.55Q18.82-35.55 21.28-33.18 23.73-30.81 23.73-26.07L23.73-26.07Q23.73-23.58 22.49-21.68 21.24-19.78 19.12-18.73L19.12-18.73Q21.56-17.99 22.99-15.72 24.41-13.45 24.41-10.25L24.41-10.25Q24.41-5.47 21.79-2.73 19.17 0 14.31 0L14.31 0ZM14.5-16.63L8.3-16.63 8.3-3.83 14.4-3.83Q16.94-3.83 18.43-5.51 19.92-7.18 19.92-10.21L19.92-10.21Q19.92-16.63 14.5-16.63L14.5-16.63ZM8.3-31.69L8.3-20.39 14.04-20.39Q16.36-20.39 17.79-21.95 19.21-23.51 19.21-26.1L19.21-26.1Q19.21-29.03 17.92-30.36 16.63-31.69 13.96-31.69L13.96-31.69 8.3-31.69ZM29.59-11.55L29.59-14.43Q29.59-20.19 32.38-23.55 35.18-26.9 39.77-26.9 44.36-26.9 47.15-23.63 49.95-20.36 50.02-14.72L50.02-14.72 50.02-11.94Q50.02-6.2 47.24-2.86 44.46 0.49 39.82 0.49L39.82 0.49Q35.23 0.49 32.46-2.76 29.68-6.01 29.59-11.55L29.59-11.55ZM33.91-14.45L33.91-11.94Q33.91-7.86 35.51-5.53 37.11-3.2 39.82-3.2L39.82-3.2Q45.53-3.2 45.7-11.45L45.7-11.45 45.7-14.43Q45.7-18.48 44.09-20.84 42.48-23.19 39.77-23.19L39.77-23.19Q37.11-23.19 35.51-20.84 33.91-18.48 33.91-14.45L33.91-14.45ZM55.59-26.42L59.66-26.42 59.79-23.56Q62.3-26.9 66.21-26.9L66.21-26.9Q73.21-26.9 73.31-17.55L73.31-17.55 73.31 0 69.01 0 69.01-17.36Q69.01-20.46 67.98-21.77 66.94-23.07 64.86-23.07L64.86-23.07Q63.25-23.07 61.97-22 60.69-20.92 59.91-19.19L59.91-19.19 59.91 0 55.59 0 55.59-26.42ZM93.91-35.55L101.99-6.86 110.12-35.55 115.03-35.55 103.97 0 100.06 0 89.03-35.55 93.91-35.55ZM117.2-11.55L117.2-14.43Q117.2-20.19 119.99-23.55 122.79-26.9 127.38-26.9 131.97-26.9 134.77-23.63 137.56-20.36 137.63-14.72L137.63-14.72 137.63-11.94Q137.63-6.2 134.85-2.86 132.07 0.49 127.43 0.49L127.43 0.49Q122.84 0.49 120.07-2.76 117.3-6.01 117.2-11.55L117.2-11.55ZM121.52-14.45L121.52-11.94Q121.52-7.86 123.12-5.53 124.72-3.2 127.43-3.2L127.43-3.2Q133.14-3.2 133.31-11.45L133.31-11.45 133.31-14.43Q133.31-18.48 131.7-20.84 130.09-23.19 127.38-23.19L127.38-23.19Q124.72-23.19 123.12-20.84 121.52-18.48 121.52-14.45L121.52-14.45ZM145.18-26.42L150.06-7.18 154.87-26.42 159.46-26.42 150.82 3.74Q149.84 7.13 148.06 8.9 146.27 10.67 144 10.67L144 10.67Q143.12 10.67 141.76 10.28L141.76 10.28 141.76 6.62 142.71 6.71Q144.59 6.71 145.65 5.82 146.71 4.93 147.37 2.73L147.37 2.73 148.23-0.22 140.46-26.42 145.18-26.42ZM183.65 0L180.84-9.28 168.83-9.28 166.07 0 161.48 0 172.93-35.55 176.76-35.55 188.24 0 183.65 0ZM174.84-29.3L170-13.13 179.69-13.13 174.84-29.3ZM197.12-26.42L197.12 0 192.8 0 192.8-26.42 197.12-26.42ZM197.47-33.42L197.47-33.42Q197.47-32.32 196.86-31.59 196.24-30.86 195-30.86L195-30.86Q193.78-30.86 193.17-31.59 192.56-32.32 192.56-33.42 192.56-34.52 193.17-35.28 193.78-36.04 195-36.04 196.22-36.04 196.84-35.27 197.47-34.5 197.47-33.42Z" fill="#FFF" transform="translate(-355 -30)" /><path d="M10.2-14.2L10.2-14.2 9.45-12.1 22.5-12.1 21.75-14.25 16.05-31.1Q15.4-29.1 10.2-14.2ZM8.5-9.35L5.25 0 1.9 0 13.8-33.7 18.3-33.7 29.95 0 26.6 0 23.4-9.35 8.5-9.35ZM37.3-12.35L37.3-12.35Q37.3-8 39.42-5.25 41.55-2.5 44.8-2.5 48.05-2.5 50.4-4.88 52.75-7.25 52.75-12.8L52.75-12.8Q52.75-15.6 51.97-17.68 51.2-19.75 49.97-20.83 48.75-21.9 47.52-22.38 46.3-22.85 45.1-22.85L45.1-22.85Q41.7-22.85 39.5-20.13 37.3-17.4 37.3-12.35ZM55.8-35.35L55.8 0 52.75 0 52.75-3.7Q50.1 0.4 44.9 0.4L44.9 0.4Q39.8 0.4 36.95-3.33 34.1-7.05 34.1-12.4L34.1-12.4Q34.1-18.3 37.15-22.03 40.2-25.75 45-25.75L45-25.75Q49.95-25.75 52.75-21.55L52.75-21.55 52.75-35.35 55.8-35.35ZM82.94-25.35L73.94 0 69.84 0 61.09-25.35 64.3-25.35 67.84-14.7 71.89-2.45Q72.39-4.3 76.05-14.7L76.05-14.7 79.75-25.35 82.94-25.35ZM106.39-4.35L106.39-1.25Q103.39 0.25 99.39 0.25L99.39 0.25Q93.74 0.25 90.22-3.28 86.69-6.8 86.69-12.55L86.69-12.55Q86.69-18.65 89.79-22.15 92.89-25.65 97.84-25.65L97.84-25.65Q102.49-25.65 105.24-22.6 107.99-19.55 107.99-14L107.99-14Q107.99-12.3 107.79-11.3L107.79-11.3 89.89-11.3Q90.24-7.1 92.79-4.88 95.34-2.65 99.54-2.65L99.54-2.65Q103.84-2.65 106.39-4.35L106.39-4.35ZM97.74-22.8L97.74-22.8Q94.54-22.8 92.39-20.55 90.24-18.3 89.89-14.1L89.89-14.1 104.84-14.1 104.84-15.25Q104.84-18.7 102.92-20.75 100.99-22.8 97.74-22.8ZM133.34-17.7L133.34 0 130.29 0 130.29-16.75Q130.29-19.7 128.79-21.25 127.29-22.8 124.84-22.8L124.84-22.8Q121.74-22.8 119.49-20.43 117.24-18.05 117.24-14L117.24-14 117.24 0 114.19 0 114.19-25.35 117.24-25.35 117.24-21Q119.59-25.75 125.29-25.75L125.29-25.75Q128.94-25.75 131.14-23.5 133.34-21.25 133.34-17.7L133.34-17.7ZM152.79-3.8L152.79-0.7Q151.34 0.25 149.44 0.25L149.44 0.25Q142.24 0.25 142.24-7.15L142.24-7.15 142.24-22.75 138.09-22.75 138.09-25.35 142.24-25.35 142.24-31.7 145.34-31.7 145.34-25.35 152.59-25.35 152.59-22.75 145.34-22.75 145.34-7Q145.34-2.65 149.39-2.65L149.39-2.65Q151.39-2.65 152.79-3.8L152.79-3.8ZM177.69-25.35L177.69 0 174.63 0 174.63-4.55Q172.63 0.35 166.59 0.35L166.59 0.35Q162.88 0.35 160.71-1.88 158.53-4.1 158.53-7.75L158.53-7.75 158.53-25.35 161.59-25.35 161.59-8.6Q161.59-5.7 163.11-4.15 164.63-2.6 167.13-2.6L167.13-2.6Q170.48-2.6 172.56-5 174.63-7.4 174.63-11.25L174.63-11.25 174.63-25.35 177.69-25.35ZM188.33-14.15L188.33 0 185.28 0 185.28-25.35 188.33-25.35 188.33-21.05Q190.43-25.65 195.43-25.65L195.43-25.65Q195.78-25.65 196.68-25.55L196.68-25.55 196.68-22.45Q195.68-22.75 194.68-22.75L194.68-22.75Q191.98-22.75 190.16-20.08 188.33-17.4 188.33-14.15L188.33-14.15ZM219.13-4.35L219.13-1.25Q216.13 0.25 212.13 0.25L212.13 0.25Q206.48 0.25 202.96-3.28 199.43-6.8 199.43-12.55L199.43-12.55Q199.43-18.65 202.53-22.15 205.63-25.65 210.58-25.65L210.58-25.65Q215.23-25.65 217.98-22.6 220.73-19.55 220.73-14L220.73-14Q220.73-12.3 220.53-11.3L220.53-11.3 202.63-11.3Q202.98-7.1 205.53-4.88 208.08-2.65 212.28-2.65L212.28-2.65Q216.58-2.65 219.13-4.35L219.13-4.35ZM210.48-22.8L210.48-22.8Q207.28-22.8 205.13-20.55 202.98-18.3 202.63-14.1L202.63-14.1 217.58-14.1 217.58-15.25Q217.58-18.7 215.66-20.75 213.73-22.8 210.48-22.8ZM241.68-6.5L241.68-6.5Q241.68-3.35 239.5-1.53 237.33 0.3 233.53 0.3L233.53 0.3Q228.93 0.3 226.13-1.2L226.13-1.2 226.13-4.35Q229.48-2.45 233.33-2.45L233.33-2.45Q235.88-2.45 237.2-3.5 238.53-4.55 238.53-6.25L238.53-6.25Q238.53-8.25 237.15-9.35 235.78-10.45 232.63-11.7L232.63-11.7Q229.58-12.9 227.78-14.5 225.98-16.1 225.98-18.9L225.98-18.9Q225.98-21.95 228.23-23.78 230.48-25.6 233.88-25.6L233.88-25.6Q237.98-25.6 240.18-24.45L240.18-24.45 240.18-21.4Q237.83-22.75 233.83-22.75L233.83-22.75Q231.63-22.75 230.35-21.73 229.08-20.7 229.08-19.05L229.08-19.05Q229.08-18.05 229.45-17.3 229.83-16.55 230.75-15.93 231.68-15.3 232.33-15 232.98-14.7 234.43-14.1L234.43-14.1Q237.93-12.7 239.8-11.03 241.68-9.35 241.68-6.5ZM278.02-33.7L278.02-30.85 268.67-30.85 268.67 0 265.57 0 265.57-30.85 256.27-30.85 256.27-33.7 278.02-33.7ZM289.92-2.55L289.92-2.55Q292.92-2.55 294.72-4.2 296.52-5.85 296.52-8.4L296.52-8.4 296.52-12.05 291.57-12.05Q288.02-12.05 286.27-10.68 284.52-9.3 284.52-7.25L284.52-7.25Q284.52-5.15 285.9-3.85 287.27-2.55 289.92-2.55ZM296.52 0L296.52-2.95Q294.42 0.25 289.22 0.25L289.22 0.25Q285.72 0.25 283.5-1.83 281.27-3.9 281.27-7.15L281.27-7.15Q281.27-10.8 284.1-12.83 286.92-14.85 291.57-14.85L291.57-14.85 296.52-14.85 296.52-16Q296.52-19.4 295.07-21.13 293.62-22.85 290.22-22.85L290.22-22.85Q286.27-22.85 283.12-20.7L283.12-20.7 283.12-24Q286.02-25.75 290.27-25.75L290.27-25.75Q299.57-25.75 299.57-16L299.57-16 299.57 0 296.52 0ZM310.12-25.35L310.12 0 307.07 0 307.07-25.35 310.12-25.35ZM310.09-34.98Q310.72-34.35 310.72-33.45 310.72-32.55 310.09-31.95 309.47-31.35 308.57-31.35 307.67-31.35 307.07-31.95 306.47-32.55 306.47-33.45 306.47-34.35 307.07-34.98 307.67-35.6 308.57-35.6 309.47-35.6 310.09-34.98ZM321.17-35.35L321.17 0 318.12 0 318.12-35.35 321.17-35.35ZM350.96-12.55L350.96-12.55Q350.96-6.9 347.79-3.23 344.61 0.45 339.06 0.45L339.06 0.45Q333.71 0.45 330.56-3.25 327.41-6.95 327.41-12.55L327.41-12.55Q327.41-18.1 330.66-21.9 333.91-25.7 339.06-25.7L339.06-25.7Q344.71-25.7 347.84-21.98 350.96-18.25 350.96-12.55ZM330.61-12.55L330.61-12.55Q330.61-8.4 332.94-5.43 335.26-2.45 339.06-2.45L339.06-2.45Q343.21-2.45 345.49-5.38 347.76-8.3 347.76-12.55L347.76-12.55Q347.76-16.95 345.61-19.88 343.46-22.8 339.06-22.8L339.06-22.8Q335.11-22.8 332.86-19.8 330.61-16.8 330.61-12.55ZM360.06-14.15L360.06 0 357.01 0 357.01-25.35 360.06-25.35 360.06-21.05Q362.16-25.65 367.16-25.65L367.16-25.65Q367.51-25.65 368.41-25.55L368.41-25.55 368.41-22.45Q367.41-22.75 366.41-22.75L366.41-22.75Q363.71-22.75 361.89-20.08 360.06-17.4 360.06-14.15L360.06-14.15ZM390.86-4.35L390.86-1.25Q387.86 0.25 383.86 0.25L383.86 0.25Q378.21 0.25 374.68-3.28 371.16-6.8 371.16-12.55L371.16-12.55Q371.16-18.65 374.26-22.15 377.36-25.65 382.31-25.65L382.31-25.65Q386.96-25.65 389.71-22.6 392.46-19.55 392.46-14L392.46-14Q392.46-12.3 392.26-11.3L392.26-11.3 374.36-11.3Q374.71-7.1 377.26-4.88 379.81-2.65 384.01-2.65L384.01-2.65Q388.31-2.65 390.86-4.35L390.86-4.35ZM382.21-22.8L382.21-22.8Q379.01-22.8 376.86-20.55 374.71-18.3 374.36-14.1L374.36-14.1 389.31-14.1 389.31-15.25Q389.31-18.7 387.38-20.75 385.46-22.8 382.21-22.8ZM400.31-12.35L400.31-12.35Q400.31-8 402.43-5.25 404.56-2.5 407.81-2.5 411.06-2.5 413.41-4.88 415.76-7.25 415.76-12.8L415.76-12.8Q415.76-15.6 414.98-17.68 414.21-19.75 412.98-20.83 411.76-21.9 410.53-22.38 409.31-22.85 408.11-22.85L408.11-22.85Q404.71-22.85 402.51-20.13 400.31-17.4 400.31-12.35ZM418.81-35.35L418.81 0 415.76 0 415.76-3.7Q413.11 0.4 407.91 0.4L407.91 0.4Q402.81 0.4 399.96-3.33 397.11-7.05 397.11-12.4L397.11-12.4Q397.11-18.3 400.16-22.03 403.21-25.75 408.01-25.75L408.01-25.75Q412.96-25.75 415.76-21.55L415.76-21.55 415.76-35.35 418.81-35.35ZM457.2-33.7L457.2-30.85 447.85-30.85 447.85 0 444.75 0 444.75-30.85 435.45-30.85 435.45-33.7 457.2-33.7ZM483.75-12.55L483.75-12.55Q483.75-6.9 480.57-3.23 477.4 0.45 471.85 0.45L471.85 0.45Q466.5 0.45 463.35-3.25 460.2-6.95 460.2-12.55L460.2-12.55Q460.2-18.1 463.45-21.9 466.7-25.7 471.85-25.7L471.85-25.7Q477.5-25.7 480.62-21.98 483.75-18.25 483.75-12.55ZM463.4-12.55L463.4-12.55Q463.4-8.4 465.72-5.43 468.05-2.45 471.85-2.45L471.85-2.45Q476-2.45 478.27-5.38 480.55-8.3 480.55-12.55L480.55-12.55Q480.55-16.95 478.4-19.88 476.25-22.8 471.85-22.8L471.85-22.8Q467.9-22.8 465.65-19.8 463.4-16.8 463.4-12.55ZM525.59-33.7L514.09-12.6 514.09 0 510.99 0 510.99-12.6 499.59-33.7 503.14-33.7 505.79-28.75 512.54-15.75Q512.94-16.7 519.39-28.75L519.39-28.75 522.04-33.7 525.59-33.7ZM552.89-12.55L552.89-12.55Q552.89-6.9 549.72-3.23 546.54 0.45 540.99 0.45L540.99 0.45Q535.64 0.45 532.49-3.25 529.34-6.95 529.34-12.55L529.34-12.55Q529.34-18.1 532.59-21.9 535.84-25.7 540.99-25.7L540.99-25.7Q546.64-25.7 549.77-21.98 552.89-18.25 552.89-12.55ZM532.54-12.55L532.54-12.55Q532.54-8.4 534.87-5.43 537.19-2.45 540.99-2.45L540.99-2.45Q545.14-2.45 547.42-5.38 549.69-8.3 549.69-12.55L549.69-12.55Q549.69-16.95 547.54-19.88 545.39-22.8 540.99-22.8L540.99-22.8Q537.04-22.8 534.79-19.8 532.54-16.8 532.54-12.55ZM577.79-25.35L577.79 0 574.74 0 574.74-4.55Q572.74 0.35 566.69 0.35L566.69 0.35Q562.99 0.35 560.81-1.88 558.64-4.1 558.64-7.75L558.64-7.75 558.64-25.35 561.69-25.35 561.69-8.6Q561.69-5.7 563.21-4.15 564.74-2.6 567.24-2.6L567.24-2.6Q570.59-2.6 572.66-5 574.74-7.4 574.74-11.25L574.74-11.25 574.74-25.35 577.79-25.35ZM588.44-14.15L588.44 0 585.38 0 585.38-25.35 588.44-25.35 588.44-21.05Q590.54-25.65 595.54-25.65L595.54-25.65Q595.88-25.65 596.79-25.55L596.79-25.55 596.79-22.45Q595.79-22.75 594.79-22.75L594.79-22.75Q592.09-22.75 590.26-20.08 588.44-17.4 588.44-14.15L588.44-14.15ZM623.23 0L623.23 0 613.38 0 613.38-33.7 622.98-33.7Q630.38-33.7 635.13-29.1 639.88-24.5 639.88-17.05L639.88-17.05Q639.88-12.5 638.13-8.72 636.38-4.95 632.5-2.48 628.63 0 623.23 0ZM622.98-30.85L622.98-30.85 616.48-30.85 616.48-2.85 623.23-2.85Q626.68-2.85 629.33-4.05 631.98-5.25 633.53-7.3 635.08-9.35 635.86-11.8 636.63-14.25 636.63-17.05L636.63-17.05Q636.63-22.8 632.8-26.83 628.98-30.85 622.98-30.85ZM648.98-14.15L648.98 0 645.93 0 645.93-25.35 648.98-25.35 648.98-21.05Q651.08-25.65 656.08-25.65L656.08-25.65Q656.43-25.65 657.33-25.55L657.33-25.55 657.33-22.45Q656.33-22.75 655.33-22.75L655.33-22.75Q652.63-22.75 650.8-20.08 648.98-17.4 648.98-14.15L648.98-14.15ZM679.77-4.35L679.77-1.25Q676.77 0.25 672.77 0.25L672.77 0.25Q667.12 0.25 663.6-3.28 660.07-6.8 660.07-12.55L660.07-12.55Q660.07-18.65 663.17-22.15 666.27-25.65 671.22-25.65L671.22-25.65Q675.87-25.65 678.62-22.6 681.37-19.55 681.37-14L681.37-14Q681.37-12.3 681.17-11.3L681.17-11.3 663.27-11.3Q663.62-7.1 666.17-4.88 668.72-2.65 672.92-2.65L672.92-2.65Q677.22-2.65 679.77-4.35L679.77-4.35ZM671.12-22.8L671.12-22.8Q667.92-22.8 665.77-20.55 663.62-18.3 663.27-14.1L663.27-14.1 678.22-14.1 678.22-15.25Q678.22-18.7 676.3-20.75 674.37-22.8 671.12-22.8ZM694.92-2.55L694.92-2.55Q697.92-2.55 699.72-4.2 701.52-5.85 701.52-8.4L701.52-8.4 701.52-12.05 696.57-12.05Q693.02-12.05 691.27-10.68 689.52-9.3 689.52-7.25L689.52-7.25Q689.52-5.15 690.9-3.85 692.27-2.55 694.92-2.55ZM701.52 0L701.52-2.95Q699.42 0.25 694.22 0.25L694.22 0.25Q690.72 0.25 688.5-1.83 686.27-3.9 686.27-7.15L686.27-7.15Q686.27-10.8 689.1-12.83 691.92-14.85 696.57-14.85L696.57-14.85 701.52-14.85 701.52-16Q701.52-19.4 700.07-21.13 698.62-22.85 695.22-22.85L695.22-22.85Q691.27-22.85 688.12-20.7L688.12-20.7 688.12-24Q691.02-25.75 695.27-25.75L695.27-25.75Q704.57-25.75 704.57-16L704.57-16 704.57 0 701.52 0ZM744.92-17.7L744.92 0 741.87 0 741.87-16.75Q741.87-22.8 736.57-22.8L736.57-22.8Q733.97-22.8 731.94-20.4 729.92-18 729.92-14L729.92-14 729.92 0 726.87 0 726.87-16.75Q726.87-22.8 721.57-22.8L721.57-22.8Q718.97-22.8 716.94-20.4 714.92-18 714.92-14L714.92-14 714.92 0 711.87 0 711.87-25.35 714.92-25.35 714.92-21.2Q717.07-25.75 722.02-25.75L722.02-25.75Q728.12-25.75 729.52-20.75L729.52-20.75Q731.87-25.75 737.02-25.75L737.02-25.75Q741.02-25.75 742.97-23.53 744.92-21.3 744.92-17.7L744.92-17.7ZM766.97-6.5L766.97-6.5Q766.97-3.35 764.79-1.53 762.62 0.3 758.82 0.3L758.82 0.3Q754.22 0.3 751.42-1.2L751.42-1.2 751.42-4.35Q754.77-2.45 758.62-2.45L758.62-2.45Q761.17-2.45 762.49-3.5 763.82-4.55 763.82-6.25L763.82-6.25Q763.82-8.25 762.44-9.35 761.07-10.45 757.92-11.7L757.92-11.7Q754.87-12.9 753.07-14.5 751.27-16.1 751.27-18.9L751.27-18.9Q751.27-21.95 753.52-23.78 755.77-25.6 759.17-25.6L759.17-25.6Q763.27-25.6 765.47-24.45L765.47-24.45 765.47-21.4Q763.12-22.75 759.12-22.75L759.12-22.75Q756.92-22.75 755.64-21.73 754.37-20.7 754.37-19.05L754.37-19.05Q754.37-18.05 754.74-17.3 755.12-16.55 756.04-15.93 756.97-15.3 757.62-15 758.27-14.7 759.72-14.1L759.72-14.1Q763.22-12.7 765.09-11.03 766.97-9.35 766.97-6.5Z" fill="#FFF" transform="translate(-355 -30)" /><path d="M0 123.6c0-68.262 55.338-123.6 123.6-123.6 50.796 0 94.435 30.642 113.441 74.45l-2.904 0c-18.837-42.301-61.243-71.791-110.537-71.792-66.794 0-120.942 54.148-120.942 120.942 0 66.794 54.148 120.942 120.942 120.942 49.294 0 91.7-29.491 110.537-71.792h2.904c-19.006 43.808-62.646 74.45-113.441 74.45-68.262 0-123.6-55.338-123.6-123.6z" fill="#FFF" transform="translate(-355 -30)" /></svg>