<svg xmlns="http://www.w3.org/2000/svg" width="126" height="30" viewBox="3.82999992 -36.04000092 193.63999939 46.70999908">
    <path fill="#FFF" d="M14.31 0H3.83v-35.55h10.13q4.86 0 7.32 2.37 2.45 2.37 2.45 7.11 0 2.49-1.24 4.39-1.25 1.9-3.37 2.95 2.44.74 3.87 3.01 1.42 2.27 1.42 5.47 0 4.78-2.62 7.52Q19.17 0 14.31 0Zm.19-16.63H8.3v12.8h6.1q2.54 0 4.03-1.68 1.49-1.67 1.49-4.7 0-6.42-5.42-6.42ZM8.3-31.69v11.3h5.74q2.32 0 3.75-1.56 1.42-1.56 1.42-4.15 0-2.93-1.29-4.26-1.29-1.33-3.96-1.33H8.3Zm21.29 20.14v-2.88q0-5.76 2.79-9.12 2.8-3.35 7.39-3.35t7.38 3.27q2.8 3.27 2.87 8.91v2.78q0 5.74-2.78 9.08Q44.46.49 39.82.49q-4.59 0-7.36-3.25-2.78-3.25-2.87-8.79Zm4.32-2.9v2.51q0 4.08 1.6 6.41t4.31 2.33q5.71 0 5.88-8.25v-2.98q0-4.05-1.61-6.41-1.61-2.35-4.32-2.35-2.66 0-4.26 2.35-1.6 2.36-1.6 6.39Zm21.68-11.97h4.07l.13 2.86q2.51-3.34 6.42-3.34 7 0 7.1 9.35V0h-4.3v-17.36q0-3.1-1.03-4.41-1.04-1.3-3.12-1.3-1.61 0-2.89 1.07-1.28 1.08-2.06 2.81V0h-4.32v-26.42Zm38.32-9.13 8.08 28.69 8.13-28.69h4.91L103.97 0h-3.91L89.03-35.55h4.88Zm23.29 24v-2.88q0-5.76 2.79-9.12 2.8-3.35 7.39-3.35t7.39 3.27q2.79 3.27 2.86 8.91v2.78q0 5.74-2.78 9.08-2.78 3.35-7.42 3.35-4.59 0-7.36-3.25-2.77-3.25-2.87-8.79Zm4.32-2.9v2.51q0 4.08 1.6 6.41t4.31 2.33q5.71 0 5.88-8.25v-2.98q0-4.05-1.61-6.41-1.61-2.35-4.32-2.35-2.66 0-4.26 2.35-1.6 2.36-1.6 6.39Zm23.66-11.97 4.88 19.24 4.81-19.24h4.59l-8.64 30.16q-.98 3.39-2.76 5.16-1.79 1.77-4.06 1.77-.88 0-2.24-.39V6.62l.95.09q1.88 0 2.94-.89t1.72-3.09l.86-2.95-7.77-26.2h4.72ZM183.65 0l-2.81-9.28h-12.01L166.07 0h-4.59l11.45-35.55h3.83L188.24 0h-4.59Zm-8.81-29.3L170-13.13h9.69l-4.85-16.17Zm22.28 2.88V0h-4.32v-26.42h4.32Zm.35-7q0 1.1-.61 1.83-.62.73-1.86.73-1.22 0-1.83-.73-.61-.73-.61-1.83t.61-1.86q.61-.76 1.83-.76 1.22 0 1.84.77.63.77.63 1.85Z" class="wordmark-text-0" data-fill-palette-color="primary"/>
</svg>