<svg xmlns="http://www.w3.org/2000/svg" xmlns:xlink="http://www.w3.org/1999/xlink" xmlns:svgjs="http://svgjs.dev/svgjs" width="1000" height="623"><svg viewBox="0 0 396 247" data-background-color="#febc22" height="623" width="1000" xmlns="http://www.w3.org/2000/svg" xmlns:xlink="http://www.w3.org/1999/xlink" transform="translate(-.606 .252)"><svg viewBox="0 0 395.52 247.2" height="247.2" width="395.52" transform="translate(.24 -.1)"><svg/><svg viewBox="0 0 395.52 247.2" height="247.2" width="395.52"><svg viewBox="0 0 244.431 84.384" height="84.384" width="244.431" transform="translate(75.544 81.408)"><svg viewBox="0 0 244.431 84.384" height="84.384" width="244.431"><svg viewBox="0 0 244.431 84.384" height="84.384" width="244.431"><svg viewBox="0 0 244.431 84.384" height="84.384" width="244.431"><g id="textblocktransform"><svg viewBox="0 0 244.431 84.384" height="84.384" width="244.431" id="textblock"><svg viewBox="0 0 244.431 58.951" height="58.951" width="244.431"><svg width="244.431" viewBox="3.83 -36.04 193.64 46.71" height="58.951" data-palette-color="#140a33"><path d="M14.31 0H3.83v-35.55h10.13q4.86 0 7.32 2.37 2.45 2.37 2.45 7.11 0 2.49-1.24 4.39-1.25 1.9-3.37 2.95 2.44.74 3.87 3.01 1.42 2.27 1.42 5.47 0 4.78-2.62 7.52Q19.17 0 14.31 0zm.19-16.63H8.3v12.8h6.1q2.54 0 4.03-1.68 1.49-1.67 1.49-4.7 0-6.42-5.42-6.42zM8.3-31.69v11.3h5.74q2.32 0 3.75-1.56 1.42-1.56 1.42-4.15 0-2.93-1.29-4.26-1.29-1.33-3.96-1.33H8.3zm21.29 20.14v-2.88q0-5.76 2.79-9.12 2.8-3.35 7.39-3.35t7.38 3.27q2.8 3.27 2.87 8.91v2.78q0 5.74-2.78 9.08Q44.46.49 39.82.49q-4.59 0-7.36-3.25-2.78-3.25-2.87-8.79zm4.32-2.9v2.51q0 4.08 1.6 6.41t4.31 2.33q5.71 0 5.88-8.25v-2.98q0-4.05-1.61-6.41-1.61-2.35-4.32-2.35-2.66 0-4.26 2.35-1.6 2.36-1.6 6.39zm21.68-11.97h4.07l.13 2.86q2.51-3.34 6.42-3.34 7 0 7.1 9.35V0h-4.3v-17.36q0-3.1-1.03-4.41-1.04-1.3-3.12-1.3-1.61 0-2.89 1.07-1.28 1.08-2.06 2.81V0h-4.32v-26.42zm38.32-9.13 8.08 28.69 8.13-28.69h4.91L103.97 0h-3.91L89.03-35.55h4.88zm23.29 24v-2.88q0-5.76 2.79-9.12 2.8-3.35 7.39-3.35t7.39 3.27q2.79 3.27 2.86 8.91v2.78q0 5.74-2.78 9.08-2.78 3.35-7.42 3.35-4.59 0-7.36-3.25-2.77-3.25-2.87-8.79zm4.32-2.9v2.51q0 4.08 1.6 6.41t4.31 2.33q5.71 0 5.88-8.25v-2.98q0-4.05-1.61-6.41-1.61-2.35-4.32-2.35-2.66 0-4.26 2.35-1.6 2.36-1.6 6.39zm23.66-11.97 4.88 19.24 4.81-19.24h4.59l-8.64 30.16q-.98 3.39-2.76 5.16-1.79 1.77-4.06 1.77-.88 0-2.24-.39V6.62l.95.09q1.88 0 2.94-.89t1.72-3.09l.86-2.95-7.77-26.2h4.72zM183.65 0l-2.81-9.28h-12.01L166.07 0h-4.59l11.45-35.55h3.83L188.24 0h-4.59zm-8.81-29.3L170-13.13h9.69l-4.85-16.17zm22.28 2.88V0h-4.32v-26.42h4.32zm.35-7q0 1.1-.61 1.83-.62.73-1.86.73-1.22 0-1.83-.73-.61-.73-.61-1.83t.61-1.86q.61-.76 1.83-.76 1.22 0 1.84.77.63.77.63 1.85z" opacity="1" fill="#140a33" class="wordmark-text-0" data-fill-palette-color="primary" id="text-0"/></svg></svg><svg viewBox="0 0 244.431 11.516" height="11.516" width="244.431" transform="translate(0 72.868)"><svg width="244.431" viewBox="1.9 -35.6 765.07 36.05" height="11.516" data-palette-color="#140a33"><path d="m10.2-14.2-.75 2.1H22.5l-.75-2.15-5.7-16.85q-.65 2-5.85 16.9zM8.5-9.35 5.25 0H1.9l11.9-33.7h4.5L29.95 0H26.6l-3.2-9.35H8.5zm28.8-3q0 4.35 2.12 7.1Q41.55-2.5 44.8-2.5t5.6-2.38q2.35-2.37 2.35-7.92 0-2.8-.78-4.88-.77-2.07-2-3.15-1.22-1.07-2.45-1.55-1.22-.47-2.42-.47-3.4 0-5.6 2.72-2.2 2.73-2.2 7.78zm18.5-23V0h-3.05v-3.7Q50.1.4 44.9.4q-5.1 0-7.95-3.73-2.85-3.72-2.85-9.07 0-5.9 3.05-9.63 3.05-3.72 7.85-3.72 4.95 0 7.75 4.2v-13.8h3.05zm27.14 10L73.94 0h-4.1l-8.75-25.35h3.21l3.54 10.65 4.05 12.25q.5-1.85 4.16-12.25l3.7-10.65h3.19zm23.45 21v3.1q-3 1.5-7 1.5-5.65 0-9.17-3.53-3.53-3.52-3.53-9.27 0-6.1 3.1-9.6t8.05-3.5q4.65 0 7.4 3.05t2.75 8.6q0 1.7-.2 2.7h-17.9q.35 4.2 2.9 6.42 2.55 2.23 6.75 2.23 4.3 0 6.85-1.7zM97.74-22.8q-3.2 0-5.35 2.25-2.15 2.25-2.5 6.45h14.95v-1.15q0-3.45-1.92-5.5-1.93-2.05-5.18-2.05zm35.6 5.1V0h-3.05v-16.75q0-2.95-1.5-4.5-1.5-1.55-3.95-1.55-3.1 0-5.35 2.37-2.25 2.38-2.25 6.43V0h-3.05v-25.35h3.05V-21q2.35-4.75 8.05-4.75 3.65 0 5.85 2.25 2.2 2.25 2.2 5.8zm19.45 13.9v3.1q-1.45.95-3.35.95-7.2 0-7.2-7.4v-15.6h-4.15v-2.6h4.15v-6.35h3.1v6.35h7.25v2.6h-7.25V-7q0 4.35 4.05 4.35 2 0 3.4-1.15zm24.9-21.55V0h-3.06v-4.55q-2 4.9-8.04 4.9-3.71 0-5.88-2.23-2.18-2.22-2.18-5.87v-17.6h3.06V-8.6q0 2.9 1.52 4.45 1.52 1.55 4.02 1.55 3.35 0 5.43-2.4 2.07-2.4 2.07-6.25v-14.1h3.06zm10.64 11.2V0h-3.05v-25.35h3.05v4.3q2.1-4.6 7.1-4.6.35 0 1.25.1v3.1q-1-.3-2-.3-2.7 0-4.52 2.67-1.83 2.68-1.83 5.93zm30.8 9.8v3.1q-3 1.5-7 1.5-5.65 0-9.17-3.53-3.53-3.52-3.53-9.27 0-6.1 3.1-9.6t8.05-3.5q4.65 0 7.4 3.05t2.75 8.6q0 1.7-.2 2.7h-17.9q.35 4.2 2.9 6.42 2.55 2.23 6.75 2.23 4.3 0 6.85-1.7zm-8.65-18.45q-3.2 0-5.35 2.25-2.15 2.25-2.5 6.45h14.95v-1.15q0-3.45-1.92-5.5-1.93-2.05-5.18-2.05zm31.2 16.3q0 3.15-2.18 4.97Q237.33.3 233.53.3q-4.6 0-7.4-1.5v-3.15q3.35 1.9 7.2 1.9 2.55 0 3.87-1.05 1.33-1.05 1.33-2.75 0-2-1.38-3.1-1.37-1.1-4.52-2.35-3.05-1.2-4.85-2.8-1.8-1.6-1.8-4.4 0-3.05 2.25-4.88 2.25-1.82 5.65-1.82 4.1 0 6.3 1.15v3.05q-2.35-1.35-6.35-1.35-2.2 0-3.48 1.02-1.27 1.03-1.27 2.68 0 1 .37 1.75.38.75 1.3 1.37.93.63 1.58.93.65.3 2.1.9 3.5 1.4 5.37 3.07 1.88 1.68 1.88 4.53zm36.34-27.2v2.85h-9.35V0h-3.1v-30.85h-9.3v-2.85h21.75zm11.9 31.15q3 0 4.8-1.65 1.8-1.65 1.8-4.2v-3.65h-4.95q-3.55 0-5.3 1.37-1.75 1.38-1.75 3.43 0 2.1 1.38 3.4 1.37 1.3 4.02 1.3zm6.6 2.55v-2.95q-2.1 3.2-7.3 3.2-3.5 0-5.72-2.08-2.23-2.07-2.23-5.32 0-3.65 2.83-5.68 2.82-2.02 7.47-2.02h4.95V-16q0-3.4-1.45-5.13-1.45-1.72-4.85-1.72-3.95 0-7.1 2.15V-24q2.9-1.75 7.15-1.75 9.3 0 9.3 9.75V0h-3.05zm13.6-25.35V0h-3.05v-25.35h3.05zm-.03-9.63q.63.63.63 1.53t-.63 1.5q-.62.6-1.52.6t-1.5-.6q-.6-.6-.6-1.5t.6-1.53q.6-.62 1.5-.62t1.52.62zm11.08-.37V0h-3.05v-35.35h3.05zm29.79 22.8q0 5.65-3.17 9.32-3.18 3.68-8.73 3.68-5.35 0-8.5-3.7-3.15-3.7-3.15-9.3 0-5.55 3.25-9.35t8.4-3.8q5.65 0 8.78 3.72 3.12 3.73 3.12 9.43zm-20.35 0q0 4.15 2.33 7.12 2.32 2.98 6.12 2.98 4.15 0 6.43-2.93 2.27-2.92 2.27-7.17 0-4.4-2.15-7.33-2.15-2.92-6.55-2.92-3.95 0-6.2 3t-2.25 7.25zm29.45-1.6V0h-3.05v-25.35h3.05v4.3q2.1-4.6 7.1-4.6.35 0 1.25.1v3.1q-1-.3-2-.3-2.7 0-4.52 2.67-1.83 2.68-1.83 5.93zm30.8 9.8v3.1q-3 1.5-7 1.5-5.65 0-9.18-3.53-3.52-3.52-3.52-9.27 0-6.1 3.1-9.6t8.05-3.5q4.65 0 7.4 3.05t2.75 8.6q0 1.7-.2 2.7h-17.9q.35 4.2 2.9 6.42 2.55 2.23 6.75 2.23 4.3 0 6.85-1.7zm-8.65-18.45q-3.2 0-5.35 2.25-2.15 2.25-2.5 6.45h14.95v-1.15q0-3.45-1.93-5.5-1.92-2.05-5.17-2.05zm18.1 10.45q0 4.35 2.12 7.1 2.13 2.75 5.38 2.75t5.6-2.38q2.35-2.37 2.35-7.92 0-2.8-.78-4.88-.77-2.07-2-3.15-1.22-1.07-2.45-1.55-1.22-.47-2.42-.47-3.4 0-5.6 2.72-2.2 2.73-2.2 7.78zm18.5-23V0h-3.05v-3.7Q413.11.4 407.91.4q-5.1 0-7.95-3.73-2.85-3.72-2.85-9.07 0-5.9 3.05-9.63 3.05-3.72 7.85-3.72 4.95 0 7.75 4.2v-13.8h3.05zm38.39 1.65v2.85h-9.35V0h-3.1v-30.85h-9.3v-2.85h21.75zm26.55 21.15q0 5.65-3.18 9.32Q477.4.45 471.85.45q-5.35 0-8.5-3.7-3.15-3.7-3.15-9.3 0-5.55 3.25-9.35t8.4-3.8q5.65 0 8.77 3.72 3.13 3.73 3.13 9.43zm-20.35 0q0 4.15 2.32 7.12 2.33 2.98 6.13 2.98 4.15 0 6.42-2.93 2.28-2.92 2.28-7.17 0-4.4-2.15-7.33-2.15-2.92-6.55-2.92-3.95 0-6.2 3t-2.25 7.25zm62.19-21.15-11.5 21.1V0h-3.1v-12.6l-11.4-21.1h3.55l2.65 4.95 6.75 13q.4-.95 6.85-13l2.65-4.95h3.55zm27.3 21.15q0 5.65-3.17 9.32-3.18 3.68-8.73 3.68-5.35 0-8.5-3.7-3.15-3.7-3.15-9.3 0-5.55 3.25-9.35t8.4-3.8q5.65 0 8.78 3.72 3.12 3.73 3.12 9.43zm-20.35 0q0 4.15 2.33 7.12 2.32 2.98 6.12 2.98 4.15 0 6.43-2.93 2.27-2.92 2.27-7.17 0-4.4-2.15-7.33-2.15-2.92-6.55-2.92-3.95 0-6.2 3t-2.25 7.25zm45.25-12.8V0h-3.05v-4.55q-2 4.9-8.05 4.9-3.7 0-5.88-2.23-2.17-2.22-2.17-5.87v-17.6h3.05V-8.6q0 2.9 1.52 4.45 1.53 1.55 4.03 1.55 3.35 0 5.42-2.4 2.08-2.4 2.08-6.25v-14.1h3.05zm10.65 11.2V0h-3.06v-25.35h3.06v4.3q2.1-4.6 7.1-4.6.34 0 1.25.1v3.1q-1-.3-2-.3-2.7 0-4.53 2.67-1.82 2.68-1.82 5.93zM623.23 0h-9.85v-33.7h9.6q7.4 0 12.15 4.6t4.75 12.05q0 4.55-1.75 8.33-1.75 3.77-5.63 6.24Q628.63 0 623.23 0zm-.25-30.85h-6.5v28h6.75q3.45 0 6.1-1.2 2.65-1.2 4.2-3.25 1.55-2.05 2.33-4.5.77-2.45.77-5.25 0-5.75-3.83-9.78-3.82-4.02-9.82-4.02zm26 16.7V0h-3.05v-25.35h3.05v4.3q2.1-4.6 7.1-4.6.35 0 1.25.1v3.1q-1-.3-2-.3-2.7 0-4.53 2.67-1.82 2.68-1.82 5.93zm30.79 9.8v3.1q-3 1.5-7 1.5-5.65 0-9.17-3.53-3.53-3.52-3.53-9.27 0-6.1 3.1-9.6t8.05-3.5q4.65 0 7.4 3.05t2.75 8.6q0 1.7-.2 2.7h-17.9q.35 4.2 2.9 6.42 2.55 2.23 6.75 2.23 4.3 0 6.85-1.7zm-8.65-18.45q-3.2 0-5.35 2.25-2.15 2.25-2.5 6.45h14.95v-1.15q0-3.45-1.92-5.5-1.93-2.05-5.18-2.05zm23.8 20.25q3 0 4.8-1.65 1.8-1.65 1.8-4.2v-3.65h-4.95q-3.55 0-5.3 1.37-1.75 1.38-1.75 3.43 0 2.1 1.38 3.4 1.37 1.3 4.02 1.3zm6.6 2.55v-2.95q-2.1 3.2-7.3 3.2-3.5 0-5.72-2.08-2.23-2.07-2.23-5.32 0-3.65 2.83-5.68 2.82-2.02 7.47-2.02h4.95V-16q0-3.4-1.45-5.13-1.45-1.72-4.85-1.72-3.95 0-7.1 2.15V-24q2.9-1.75 7.15-1.75 9.3 0 9.3 9.75V0h-3.05zm43.4-17.7V0h-3.05v-16.75q0-6.05-5.3-6.05-2.6 0-4.63 2.4-2.02 2.4-2.02 6.4V0h-3.05v-16.75q0-6.05-5.3-6.05-2.6 0-4.63 2.4-2.02 2.4-2.02 6.4V0h-3.05v-25.35h3.05v4.15q2.15-4.55 7.1-4.55 6.1 0 7.5 5 2.35-5 7.5-5 4 0 5.95 2.22 1.95 2.23 1.95 5.83zm22.05 11.2q0 3.15-2.18 4.97Q762.62.3 758.82.3q-4.6 0-7.4-1.5v-3.15q3.35 1.9 7.2 1.9 2.55 0 3.87-1.05 1.33-1.05 1.33-2.75 0-2-1.38-3.1-1.37-1.1-4.52-2.35-3.05-1.2-4.85-2.8-1.8-1.6-1.8-4.4 0-3.05 2.25-4.88 2.25-1.82 5.65-1.82 4.1 0 6.3 1.15v3.05q-2.35-1.35-6.35-1.35-2.2 0-3.48 1.02-1.27 1.03-1.27 2.68 0 1 .37 1.75.38.75 1.3 1.37.93.63 1.58.93.65.3 2.1.9 3.5 1.4 5.37 3.07 1.88 1.68 1.88 4.53z" opacity="1" fill="#140a33" class="slogan-text-1" data-fill-palette-color="secondary" id="text-1"/></svg></svg></svg></g></svg></svg></svg></svg><path d="M0 123.6C0 55.338 55.338 0 123.6 0c50.796 0 94.435 30.642 113.441 74.45h-2.904C215.3 32.149 172.894 2.659 123.6 2.658 56.806 2.658 2.658 56.806 2.658 123.6c0 66.794 54.148 120.942 120.942 120.942 49.294 0 91.7-29.491 110.537-71.792h2.904c-19.006 43.808-62.646 74.45-113.441 74.45C55.338 247.2 0 191.862 0 123.6z" fill="#140a33" stroke="transparent" data-fill-palette-color="tertiary"/></svg></svg></svg></svg>