<svg xmlns="http://www.w3.org/2000/svg" width="1000" height="232"><g transform="translate(-.60605136 .07550468)"><svg xmlns="http://www.w3.org/2000/svg" xmlns:xlink="http://www.w3.org/1999/xlink" width="1000" height="232" data-background-color="#febc22" viewBox="0 0 396 92"><g transform="translate(.23999634 -.0299408)"><svg width="395.52" height="92.05988232" viewBox="0 0 395.52 92.05988232"><g><svg width="395.52" height="92.05988232" viewBox="0 0 574.51045089 133.72108743"><g transform="translate(178.99045089 41.32175696)"><svg width="395.52" height="51.0775735" viewBox="0 0 395.52 51.0775735"><g><svg width="395.52" height="51.0775735" viewBox="0 0 395.52 51.0775735"><g><svg width="395.52" height="51.0775735" viewBox="0 0 395.52 51.0775735"><g><svg width="395.52" height="51.0775735" data-palette-color="#ffffff" viewBox="2.4000001 -34.25 268.67999268 34.70000076"><path fill="#fff" d="M2.4-33.95q1 .05 2.48.1 1.47.05 2.82.05 1.25 0 2.73-.03 1.47-.02 3-.05 1.52-.02 2.77-.02 3.7 0 6.33.7 2.62.7 4.02 2.3 1.4 1.6 1.4 4.45 0 3.1-1.97 5.32Q24-18.9 20.45-18.4q2.95.15 5.15 1.08 2.2.92 3.43 2.77 1.22 1.85 1.22 4.75 0 2.75-1.32 4.97Q27.6-2.6 24.7-1.3 21.8 0 17.05 0h-3.7q-2 0-4.05.03-2.05.02-3.85.05Q3.65.1 2.4.15q0-.85.05-1.53.05-.67.25-1.17 1.35-.1 2.08-.53.72-.42 1.02-1.5.3-1.07.3-3.12v-18.8q0-1.9-.27-2.85-.28-.95-1.03-1.38-.75-.42-2.1-.52-.15-.5-.22-1.27-.08-.78-.08-1.43Zm9.4 3.3.7-1.35v24.45q0 2.1.43 3.15.42 1.05 1.37 1.4.95.35 2.5.35 3.1 0 4.7-1.73 1.6-1.72 1.6-4.77 0-2.15-.8-3.55t-2.12-2.15q-1.33-.75-3-1.08-1.68-.32-3.48-.32h-2.25v-2.65h2.7q2.75 0 4.28-.8 1.52-.8 2.17-2.2.65-1.4.65-3.1 0-2.3-1-3.65t-2.5-1.93q-1.5-.57-3.1-.57-.75 0-1.37.1-.63.1-1.48.4ZM51.1.45q-5.1 0-8.85-2.28-3.75-2.27-5.83-6.2-2.07-3.92-2.07-8.97 0-3.9 1.27-7.08 1.28-3.17 3.55-5.45 2.28-2.27 5.33-3.49 3.05-1.23 6.6-1.23 4.95 0 8.72 2.12 3.78 2.13 5.93 5.95 2.15 3.83 2.15 8.93 0 3.85-1.2 7.07-1.2 3.23-3.45 5.6Q61-2.2 57.92-.88 54.85.45 51.1.45Zm.85-2.9q2.9 0 4.92-1.78Q58.9-6 60-9.08q1.1-3.07 1.1-6.92 0-4.3-1.4-7.8t-3.85-5.55q-2.45-2.05-5.7-2.05-2.6 0-4.65 1.57-2.05 1.58-3.2 4.53-1.15 2.95-1.15 7 0 3.1.67 5.95.68 2.85 2.05 5.07 1.38 2.23 3.4 3.53 2.03 1.3 4.68 1.3Zm46.8-7.1-.6 9.9-22.8-30.1q-.6-.8-1.25-1.08-.65-.27-2-.42-.2-.65-.25-1.35-.05-.7-.05-1.35.55.05 1.37.07.83.03 1.73.05.9.03 1.55.03 1.05 0 2.17-.05 1.13-.05 1.93-.1l18.2 24.4ZM71.8.15q0-.85.05-1.5t.25-1.2q1.4-.1 2.2-.73.8-.62 1.12-2.2.33-1.57.33-4.37V-30.6l2.9.15v20.6q0 2.8.3 4.37.3 1.58 1.1 2.2.8.63 2.25.73.15.55.2 1.22.05.68.05 1.48-.7-.05-1.65-.07-.95-.03-1.9-.05Q78.05 0 77.25 0q-.75 0-1.8.03-1.05.02-2.05.05-1 .02-1.6.07Zm26.35.2V-24.1q0-2.8-.3-4.3t-1.1-2.13q-.8-.62-2.3-.72-.2-.85-.25-1.48-.05-.62-.05-1.22.75.05 1.67.07.93.03 1.9.05.98.03 1.73.03 1.15 0 2.55-.05t2.4-.1q0 .65-.05 1.32-.05.68-.25 1.38-1.15.05-1.83.67-.67.63-.92 2.13t-.25 4.35V0q-.6.2-1.35.28-.75.07-1.6.07Zm33.94 0q-1.75-4.65-3.53-9.2-1.77-4.55-3.47-8.78-1.7-4.22-3.25-7.77-1.1-2.45-1.72-3.65-.63-1.2-1.18-1.63-.55-.42-1.4-.57-.15-.6-.22-1.33-.08-.72-.08-1.37.55.05 1.38.07.82.03 1.8.05.97.03 1.9.03h1.67q1.45 0 3.28-.05 1.82-.05 3.52-.1 0 .75-.07 1.45-.08.7-.18 1.25-1.55.15-2.25.6-.7.45-.55 1.52.15 1.08 1.05 3.23 1.25 3 2.45 6.02 1.2 3.03 2.32 6.18 1.13 3.15 2.28 6.65h-1q1.45-3.25 2.7-6.28 1.25-3.02 2.45-6.12 1.2-3.1 2.4-6.45.8-2.35.42-3.73-.37-1.37-2.42-1.62-.15-.55-.22-1.27-.08-.73-.08-1.43.7.05 1.5.07.8.03 1.63.05.82.03 1.62.03 1.15 0 2.6-.05 1.45-.05 2.45-.1 0 .75-.1 1.43-.1.67-.25 1.27-1.45.35-2.35 1.7-.9 1.35-1.9 3.95-2.45 6.35-5.05 12.72-2.6 6.38-5.35 12.93-.6.2-1.3.25-.7.05-1.5.05Zm37.3.1q-5.1 0-8.85-2.28-3.75-2.27-5.83-6.2-2.07-3.92-2.07-8.97 0-3.9 1.27-7.08 1.28-3.17 3.55-5.45 2.28-2.27 5.33-3.49 3.05-1.23 6.6-1.23 4.95 0 8.72 2.12 3.78 2.13 5.93 5.95 2.15 3.83 2.15 8.93 0 3.85-1.2 7.07-1.2 3.23-3.45 5.6-2.25 2.38-5.33 3.7-3.07 1.33-6.82 1.33Zm.85-2.9q2.9 0 4.92-1.78 2.03-1.77 3.13-4.85 1.1-3.07 1.1-6.92 0-4.3-1.4-7.8t-3.85-5.55q-2.45-2.05-5.7-2.05-2.6 0-4.65 1.57-2.05 1.58-3.2 4.53-1.15 2.95-1.15 7 0 3.1.67 5.95.68 2.85 2.05 5.07 1.38 2.23 3.4 3.53 2.03 1.3 4.68 1.3Zm30.5-10.7h6.4v4.45q0 2.55.27 3.8.28 1.25 1.18 1.67.9.43 2.75.68.2.65.27 1.27.08.63.08 1.43-1.8-.05-3.85-.1t-3.9-.05q-1.35 0-2.85.03-1.5.02-2.85.02t-2.35.05q.05-.7.12-1.4.08-.7.28-1.25 2-.2 2.95-.58.95-.37 1.22-1.54.28-1.18.28-3.63v-4.85Zm12.9-13.15-7.7 16.1h-3.95l-9.15-18.1q-.8-1.6-1.58-2.25-.77-.65-1.97-.7-.2-.65-.28-1.27-.07-.63-.07-1.38.85 0 1.95.02 1.1.03 2.22.05 1.13.03 2.08.03h2.32q1.38 0 2.73-.03 1.35-.02 2.2-.07 0 .8-.08 1.35-.07.55-.22 1.2-1.8.2-2 1.15-.2.95.75 3 1.15 2.25 2.52 5.27 1.38 3.03 2.73 6.28h-.35q1.45-3.35 2.72-6.15 1.28-2.8 2.38-5 1.1-2.35.75-3.3-.35-.95-2.15-1.15-.15-.65-.28-1.25-.12-.6-.12-1.4 1.05.05 2.4.07 1.35.03 2.6.03 1.15 0 2.3-.03 1.15-.02 2.1-.07 0 .75-.08 1.35-.07.6-.17 1.2-1.25.3-2.3 1.4-1.05 1.1-2.3 3.65Zm24.24-7.8 11.65 26.35q.95 2.1 1.55 3.17.6 1.08 1.18 1.48.57.4 1.27.55.2.65.28 1.27.07.63.07 1.43-.65-.05-1.87-.07-1.23-.03-2.48-.05-1.25-.03-2.05-.03-.6 0-1.52.03-.93.02-1.93.05-1 .02-1.85.05-.85.02-1.35.02 0-.85.08-1.5.07-.65.27-1.2 1.95-.3 2.3-1.03.35-.72-.55-2.87l-5.9-13.65q-.9-2-1.5-3.68-.6-1.67-1.2-3.67h.8q-.6 2.05-1.2 3.8t-1.3 3.5l-4.9 12.7q-.85 2.35-.45 3.52.4 1.18 2.3 1.38.2.55.28 1.22.07.68.07 1.48-.55-.05-1.42-.07-.88-.03-1.85-.05-.98-.03-1.83-.03-1.25 0-2.45.05-1.2.05-1.9.1 0-.7.08-1.38.07-.67.32-1.32.85-.15 1.45-.65t1.2-1.6q.6-1.1 1.35-3l10.45-26.05q.65-.15 1.2-.2.55-.05 1.35-.05Zm-9.3 21.4h12.65l.65 2.55q-3.35 0-7.07.07-3.73.08-7.03.28l.8-2.9Zm32.4 5.4v-19.2q0-1.9-.27-2.85-.28-.95-1.03-1.38-.75-.42-2.1-.52-.15-.5-.22-1.23-.08-.72-.08-1.47.9.05 2.1.07 1.2.03 2.48.05 1.27.03 2.37.03 1.15 0 2.35-.03 1.2-.02 2.35-.05 1.15-.02 2.15-.07 0 .75-.05 1.43-.05.67-.3 1.27-1.3.1-2.05.5-.75.4-1.02 1.37-.28.98-.28 2.88v19.2q0 1.85.28 2.85.27 1 1.02 1.4.75.4 2.1.5.15.45.23 1.17.07.73.07 1.53-1.4-.1-3.12-.12-1.73-.03-3.53-.03-1.85 0-3.77.03-1.93.02-3.38.12 0-.75.08-1.48.07-.72.22-1.22 1.35-.1 2.1-.5t1.03-1.4q.27-1 .27-2.85Z" class="wordmark-text-0" data-fill-palette-color="primary"/></svg></g></svg></g></svg></g></svg></g><g><svg width="166.93226165" height="133.72108743" viewBox="0 0 166.93226165 133.72108743"><g><svg xmlns="http://www.w3.org/2000/svg" xmlns:xlink="http://www.w3.org/1999/xlink" xml:space="preserve" width="166.93226165" height="133.72108743" class="icon-icon-0" data-fill-palette-color="accent" viewBox="4.31699991 9.19400024 40 32.04199982"><path fill="#fff" d="m21.756 9.194-9.907 32.042h-1.844v-2.955L21.231 9.194h.525zM7.159 28.656l-2.842 4.43v3.154h4.26l3.208-7.584H7.159zm7.762-7.28h-2.733l-1.374 1.943v1.387h2.566l1.541-3.33zm1.748-5.015h-1.455l-.723 1.03v.736h1.364l.814-1.766zm1.347-3.485H16.94l-.528.761v.542h1.008l.596-1.303zm1.051-2.421h-.501l-.262.359v.26h.479l.284-.619zm7.803-1.261 9.902 32.042h1.853v-2.955L27.398 9.194h-.528zm14.592 19.462h-4.617l3.199 7.584h4.273v-3.154l-2.855-4.43zm-6.207-3.95h2.57v-1.387l-1.373-1.943H33.71l1.545 3.33zm-2.472-6.578h1.355v-.736l-.728-1.03h-1.45l.823 1.766zm-.559-3.949v-.542l-.542-.761h-1.066l.605 1.303h1.003zm-1.898-3.106v-.26l-.258-.359h-.506l.284.619h.48zm-6.27 10.303h-4.563l-.7 3.33h11.042l-.696-3.33h-5.083zm.528-5.015h-3.767l-.43 1.767H28.234l-.416-1.767h-3.234zm.104-3.485h-3.112l-.344 1.303h6.167l-.344-1.303h-2.367zm0-1.803h1.46l-.104-.619h-3.455l-.095.619h2.194zm-.104 17.583H17.275l-2.169 7.629h18.418l-2.178-7.629h-6.762z" data-fill-palette-color="accent"/></svg></g></svg></g></svg></g></svg></g></svg></g></svg>